<svg preserveAspectRatio="none" width="100%" height="100%" overflow="visible" style="display: block;" viewBox="0 0 18.9106 20" fill="none" xmlns="http://www.w3.org/2000/svg">
<path id="Vector" d="M9.45532 0C4.2334 0 0 3.9154 0 8.7461C0 12.3132 1.49377 14.0161 3.53986 15.5685L3.54928 15.5727V19.759C3.54928 19.9567 3.77418 20.0697 3.93318 19.9525L7.51907 17.2893L7.59648 17.3227C8.19796 17.4336 8.81932 17.4922 9.45532 17.4922C14.6772 17.4922 18.9106 13.5768 18.9106 8.7461C18.9106 3.9154 14.6772 0 9.45532 0ZM6.28577 10.9616C7.21257 10.9616 8.00549 10.4072 8.24399 9.54947H9.61537C9.27959 11.1991 7.99607 12.2807 6.28681 12.2807C4.2993 12.2807 2.72394 10.7985 2.72394 8.73564C2.72394 6.67281 4.2993 5.19054 6.28681 5.19054C8.01386 5.19054 9.30678 6.29309 9.62583 7.97097H8.25863C8.05047 7.0588 7.23036 6.48975 6.28681 6.48975C4.951 6.48975 4.06185 7.44271 4.06185 8.73459C4.06185 10.0265 5.07234 10.9606 6.28681 10.9606L6.28577 10.9616ZM15.3185 12.1447H14.0622V9.31097C14.0622 8.65823 13.6824 8.3078 13.0977 8.3078C12.445 8.3078 12.0265 8.70739 12.0265 9.51495V12.1447H10.7702V5.21251H12.0265V7.82033C12.3288 7.36321 12.8153 7.1383 13.4774 7.1383C14.013 7.1383 14.4513 7.31404 14.7923 7.67389C15.1427 8.03478 15.3185 8.52119 15.3185 9.15406V12.1437V12.1447Z" fill="var(--fill-0, #606C4E)"/>
</svg>
